<svg xmlns="http://www.w3.org/2000/svg" viewBox="0 0 67.3 73.4"><g fill="#231815"><path d="M28.2 72.9h1s.1-.4.3-.6.6-.7.6-.7-.6 0-1.2.6c-.5.4-.7.7-.7.7m2.3-.7c-.6.6-.6.7-.6.7h.9s.1-.3.1-.6c.1-.3.6-.7.6-.7s-.3-.2-1 .6m9.6-.8c-.6.4-.6.6-.6.6l1.5-.1s.1-.3.3-.6c.1-.1.1-.6.1-.6s-.7.1-1.3.7m.5-68s-.3-.3-.9-.4-2.1.1-2.1.1.6.1.7.4c.1.1.1.6.1.6zM31.5 5l.4.4c0-.1.1-.6.1-.6s-.7-.6-1.2-.4c-.4 0 .4.5.7.6"/><path d="M42.8 2.5c.1 0 1.9.1 3.4.6 1.6.1 3.4.6 3.4.6 0 .1-.7.6-.7.6 0 .1 1.2.6 1.2.6-.1.6-1 1.2-1.6 1.6l-.1.1c-.1.4-.3 1-.4 1-.1.1-.1-.4-.3-.7-.3.1-.6.1-.9.3l-.7.6h-.5c-.3.3-.6.7-.6.7 0 .4.1.1.1.1.7-.3 1.3-.4 1.9-.6.1-.1.1-.3.3-.3.1-.1.1.1.1.1.6-.1.9-.1.9-.1l.1.6c-.4.6-4.5 2.4-4.9 2.8-.6.3-5.9 4.3-6.4 4.9-.6 1-2.8 5.6-2.5 7.6.1 1.2.3 1.6.6 2.1.1.3.7 1.8 1.2 2.5.1.3.1.6.3.4 0 0 0-.1-.1-.4-.1-.6-.4-1.9-.6-3.1-.1-1.8 0-3.4.9-5.5.7-2.1 1.5-2.7 2.2-3.3.4-.4 5.5-4.5 8.4-5.9 1.5-.7 2.1-1.6 2.2-1.9s-.1-1.3-.1-1.3c.1-.1 1.6-1.3 2.1-2.9.4-1.3.1-1.6-.1-1.6-1-.1-8.2-1.5-8.2-1.5C42.1.5 40.6 0 40.3 0c-.9.1-2.2.4-3.4.7-2.4.6-4.9 1.6-4.9 1.6-1-.6-3.7-.1-4.2.1-.6.6.9 2.8.9 2.8 2.1 2.2 4 1.6 3.9 1.6s-.3-.1-.4-.1c-1.6.1-3.6-3.1-3.1-3.4.9-.3 2.1-.3 2.9 0 .3.1.7.6.7.6.1-.9 4.9-1.9 6.8-2.4 1.1-.2 3.3 1 3.3 1M6 63.1c.1.1.1-.1.1-.7.1-.6.4-.6.4-.6l.9-.6s.1.3.3.6c.3.4.9.6.9.6v-.9c.1-.3.3-.7.6-.9s1.3-1.5 1.6-1.9l-1.1-3.3c-.1-.4-1.8-4-1.6-4.8.3-1.5 1.2-2.9 1.3-3.1.7-.3 3.7-1.3 3.7-1.3l.9-.1c-.3 0-3.4.1-5.9.6-.9.1-1.9 2.8-1.3 5.1.1.7.7 2.2 1.2 2.9.4.9 1.3 3.1 1.3 3.6-.1.6-1.2 2.2-1.2 2.2s-.6-.9-.6-1v-.1c-.3.3-.1.9-.1.9s-.6.3-.9.6-.4.3-.4.3-.1-.1-.4-.6c0-.1 0-.7-.1-.7-.4.3-.1 1.3-.1 1.3s-1 .1-1.3.3c-.1 0-.1-.3-.1-.3l-.1-1c-.4.1-.6 1.2-.6 1.2l-.4-.1-.5-1s-.3-1.3-.4-1.8q0-.1-.1-.4v-.3c-.9-4.9-.9-13.7-.1-14.8.7-1.3 4.2-6.7 5.4-8.6 1.3-1.9 1.9-3.1 2.2-3.7.1-.6 1.3-5.6 2.8-7.9.4-.6 4-5.5 4.5-5.9.3-.4 2.1-2.8 2.9-3.7 1-1.3 4.2-4.2 4.8-4.8.3-.3 2.8-2.1 3.4-2.4l-.3-.2-.6-.7s-.9.4-3.1 2.1c-.6.3-4 3.7-4.6 4.5-.6.7-2.8 3.4-4.2 5.5-1.5 1.9-3.9 4.8-5.2 7.6-.3.7-.9 3.4-1.5 5.4-.7 2.7-2.4 4.3-3.7 6.5C3.1 38.9.8 42.6.5 43.2c-.6 1.5-.6 10-.3 11.6.1.6.3 2.1.6 3.6.6 2.1.7 2.1.9 3.1.3 1.2.9 1.6.9 1.6s0-.7.1-1.2c.1-.3.6 0 .6 0s-.1.9.6 1.6c.1.1.1-.6.1-1.2.1-.4 1.5-.7 1.5-.7s0 1.1.5 1.5"/><path d="M50.1 29.4c-.6-.1-3.7-1.9-4.9-2.4-1.8-.6-3.1-1.5-4.9-2.4-1.9-.9-2.5-1.2-2.8-1.6-.1-.1-.6-1.8-.6-1.8-.9 2.8.9 3.1.9 3.1 1.8 1.2 11 5.1 11.4 5.5 1.5 1.3 2.1 2.7 2.5 4.2.4 1.3 1.3 4.2.6 8.2-.7 3.7-1.5 5.4-2.1 7.1-.1.6-.9 2.8-.7 2.9l.6-1.2c1-1.9 2.4-3.4 3.1-6.2s.9-5.5.6-7.7c-.3-2.1-2.1-7-3.7-7.7M16.5 49.1v2.4s-1.2 3.6-1.3 4.8.1 3.1.1 3.4c0 0 .3 1.6.4 2.4.1.7-.1 1.9-.1 2.5-.1.7-1.3 1.9-1.5 2.2-.6.9-1.6 2.1-2.8 3.4-.1.1-.4.3-.7.6l-1.6.1s-3.9.4-4 .6c-.1.1 4.3-.1 4.3-.1l2.5.3 3.4-.4 1 .1s.4-.3.6-.6c.1-.1.3-.7.3-.7s-.6 0-1.2.6q-.6.6-.9.6l-.7-.1c.1-.1.1-.4.1-.6.1-.3.6-.9.6-.9s-.9.1-1.5.9c-.1.1-.1.3-.1.4l-.4-.1-.4-.1c.7-.9 2.1-2.5 3.7-4.5 1-1.3-.1-7.9-.1-7.9-.1-1.9 1.5-7.1 1.5-7.1.1-.7-1.2-2.2-1.2-2.2"/><path d="M28.2 67.7c.3-.3 1.2-3.1 1.2-3.1-.1-2.1-.9-4.5-1.5-5.6s-2.5-4.9-2.7-5.6c0 0-1-4-1-4.5-.1-.6-.9-3.4-.9-3.4s-.3 2.2-.1 3.3c0 .6.1 1.6.4 2.7-.4-.1-.9-.3-1.5-.4h.1s-1.3-.9-2.1-1.3c-1.6-1-3.1-2.4-4.9-5.6-1.9-3.3-2.2-3.7-2.8-5.6-.4-1.3.6-9.7.6-9.7 0-.1.6-3.7.6-4 .1-.6-1.6 2.8-1.6 2.8-.7 2.1-1.6 11-1 12.5 1.6 3.1 3.4 5.9 5.6 8.2l2.2 3.1s3.1 2.2 4.6 3.3c.7.6 1.3 1.2 1.6 1.6.6 1.2 1.3 2.5 2.1 4.5 1 2.9 1.3 2.9 1.3 4.2 0 .6-1.8 3.7-2.2 5.5-.1.1-.1.4-.1.6l-2.5.1c.9-1.6.9-7.1.9-7.6s-.3-4.3-.1-4.9c.1-.6.3-1.2.6-1.5.1-.3 0-.1 0-.1-.6.3-.9 1.5-1.2 2.2-.1.7-.4 5.1-.6 8.6-.1 2.4-.4 2.8-1.6 3.1-.6.1-1.2.1-1.9.6-.4.1-.6.3-.9.4h.1-.1l6.7.7c-.1.4-.4.6-.3.6h2.7s.1-.6.3-.7c.1-.3.1-.7.1-.7s-.7.3-1.3.9l.1-.4c-.2-1.8.6-4 1.1-4.8m14-1.6c.1-.1 0-1.8-.1-2.5s-.3-2.2-1-4.5c-.7-2.4-.9-3.1-1.2-3.4s-.6-.4-1.9-.9c-.6-.1-1-.1-1.3-.1l-1-.3c0-1.2.1-1.5.4-2.2.3-1 1.8-5.2 2.1-6.5.1-.7-.7-4.5-1.6-5.9-.6-.9-.4-.4-.4-.4.3.3.6 2.9.6 2.9.3 2.1.1 3.7.1 3.7-.1.4-2.2 7-2.4 7.6-.1.6.1.9.1 1.9s1 6.1 1 6.1.9 5.2.7 7.1c-.1 1.3-.9 3.4-1.3 3.4-.9.4-2.1.9-2.1.9 1 0 2.1-.1 2.5-.1.3 0 .6-.1.7-.4l3.1-.4s-.3-.9.1-1.8c.7-1.4 2.5-3.5 2.9-4.2m-4.3 4.6h-1.3c.1-.6.3-1.3.4-1.9.1-1.3-.1-4.5-.1-5.2-.1-.7-.9-4.5-1.3-7.3 0-.1-.1-.4-.1-.6.3-.1.9-.1 1.2-.1H38c.3.1.4.4.7.9.6.9 1 2.9 1.5 4.5.5 1.7.7 3.9.6 4.8.1.3-2.1 3.1-2.9 4.9m10.5.6c.6-1.2 1.5-3.4 1.6-4.8.1-1.8-.3-6.8-.3-7.1 0-.4.3-1.8.6-2.8.1-1-.1-2.7-.6-3.4-.1-.9-.1-.1-.1.9s-1 4.5-1 4.9c-.1.4 0 1.6.1 3.1s.1 3.1 0 4.2c-.1.9-.7 3.6-1.3 4.5-.1.1-.3.4-.6.6l-1.9.1c.1-.1.6-.4.6-.4s-.7-.1-1.3.1c-.1.1-.3.1-.3.3l-.7.1q.1-.1.1-.3c.1-.1.1-.4.1-.4s-.6 0-1 .3c-.7.6-.6.7-.6.7h.6l4.6.3s3.7.1 3.7 0c.3 0-1.8-.8-2.3-.9m10.2-25h8.6v1.8h-8.6zm0 15h8.6v1.8h-8.6zm6.9-7.6v2.4c0 1.2 0 1.6-.1 2.4l-.1.1 1.6.6s.3-1 .3-3.1v-1.9c0-2.8-.6-3.9-2.4-3.9h-.6c-1.6 0-2.4.6-2.4 1.9v3.4s0 1.5-.1 1.8c0 .1-.1.1-.6.1h-.3c-.6 0-.9 0-.9-1.8v-2.1c0-1.3 0-1.8.1-2.8v-.2l-1.6-.4s-.1 1.5-.3 3.1v1.9c0 2.8.6 3.9 2.4 3.9h.6c1.6 0 2.4-.6 2.4-1.9v-3.4s0-1.2.1-1.6c0-.1.1-.3.6-.3h.3c.7.1 1 .1 1 1.8m1.6-44.8V7c0-.9-.1-2.8-.1-3.4 0-.1-.1-.9-.1-.9h-8.4v1.8H65l.6-.3-.3.9v.1c.1.6.1 1.2.1 2.7v.3c0 2.4-.7 2.4-1.6 2.4h-5.4v1.8H64c1.2-.4 3.1-.8 3.1-3.5m.2 21.9v-.6c0-.9-.1-2.8-.1-3.6v-.9h-8.4v1.8h6.5l.7-.4-.3.9c.1.6.1 1.5.1 2.8v.3c0 1.6-.4 2.4-.4 2.4l1.3.6.1.1c-.1-.1.3-1.1.5-3.4m-.2 9.6v-1.9c0-1.3-.1-2.4-.1-2.5l-.1-1.3h-8.4l-.1 1.3s-.1 1.3-.1 2.8v1.6c0 2.1.4 4 3.6 4h1.5c2.9 0 3.7-1 3.7-4m-1.6-1.6v1.6c0 1.6-.3 2.2-1.9 2.2H62c-1.3 0-2.1-.3-2.1-2.1v-4.2h4.9l.7-.4-.3.9c.3.6.3 1.2.3 2M67 72.2v-3.3l-4-5.8-4.4 5.7v3.1l4.1-5.5.3-1.1.3 1.1zm.3-52.5V18c0-2.1-.4-4.2-3.4-4.2h-1.8c-3.1 0-3.4 2.2-3.4 4.2v1.6c0 2.1.4 4.2 3.4 4.2h1.8c3 .1 3.4-2.1 3.4-4.1M60 20v-2.4c0-1.3.3-2.1 1.9-2.1h1.6c1.6 0 1.9.7 1.9 2.1V20c0 1.3-.3 2.1-1.9 2.1h-1.6c-1.4 0-1.9-.7-1.9-2.1m-6.8 51.1v-1.8h1.1c.1 0 .1.1.1.1q.1.1.1.3t-.1.3-.3.1c.1 0 .1.1.1.1 0 .1.1.1.1.3l.1.3h-.1l-.3-.4q-.1-.1-.1-.3l-.1-.1h-.2v.7zm.3-1.1h.6s.1 0 .1-.1v-.2l-.1-.1h-.6z"/><path d="M53.9 71.9c-.9 0-1.6-.7-1.6-1.6s.7-1.6 1.6-1.6 1.6.7 1.6 1.6c0 .8-.7 1.6-1.6 1.6m0-3c-.7 0-1.3.6-1.3 1.3s.6 1.3 1.3 1.3 1.3-.6 1.3-1.3c.1-.7-.5-1.3-1.3-1.3"/></g></svg>